<?xml version="1.0" standalone="no"?>
<!DOCTYPE svg PUBLIC "-//W3C//DTD SVG 20010904//EN"
 "http://www.w3.org/TR/2001/REC-SVG-20010904/DTD/svg10.dtd">
<svg version="1.0" xmlns="http://www.w3.org/2000/svg"
 width="400.000000pt" height="400.000000pt" viewBox="0 0 400.000000 400.000000"
 preserveAspectRatio="xMidYMid meet">
<metadata>
Created by potrace 1.11, written by Peter Selinger 2001-2013
</metadata>
<g transform="translate(0.000000,400.000000) scale(0.100000,-0.100000)"
fill="#000000" stroke="none">
<path d="M1030 3978 c-11 -12 -25 -40 -31 -61 -9 -34 -7 -55 8 -117 3 -8 6
-22 7 -30 2 -8 7 -23 11 -33 4 -9 5 -26 2 -37 -3 -11 0 -20 6 -20 8 0 8 -3 2
-8 -6 -4 -26 -38 -45 -77 -29 -57 -35 -82 -36 -135 -1 -36 3 -73 8 -82 6 -13
3 -23 -12 -38 -11 -11 -20 -17 -20 -13 0 17 -45 -37 -68 -82 -26 -51 -30 -98
-10 -122 6 -7 7 -13 2 -13 -4 0 15 -22 44 -49 29 -27 52 -51 52 -55 0 -3 -9
-21 -19 -40 -11 -19 -17 -37 -14 -40 3 -3 0 -13 -8 -22 -8 -10 -13 -19 -11
-21 1 -1 2 -5 1 -8 -5 -31 -2 -125 4 -125 4 0 7 -6 6 -12 -2 -14 10 -67 20
-83 11 -19 8 -70 -5 -92 -8 -12 -14 -31 -14 -43 0 -11 -3 -20 -7 -20 -5 0 -8
-31 -8 -70 0 -38 3 -70 6 -70 7 0 9 -17 11 -95 2 -43 -6 -110 -12 -110 -1 0
-3 -11 -4 -25 -2 -14 -6 -33 -11 -43 -7 -17 -9 -17 -26 -1 -11 9 -19 21 -19
27 0 9 -10 32 -47 115 -21 45 -18 68 10 96 27 26 47 61 47 81 0 8 3 15 8 15 4
0 8 25 10 55 2 36 -1 55 -8 55 -6 0 -8 5 -4 11 3 6 -4 24 -16 41 -12 16 -19
36 -16 45 4 9 -5 26 -23 42 -27 25 -35 27 -75 21 -25 -4 -55 -15 -65 -24 -11
-10 -26 -16 -33 -13 -30 11 -119 -48 -111 -73 1 -3 -12 -15 -28 -25 -40 -27
-62 -78 -55 -124 3 -20 7 -42 8 -48 1 -7 6 -13 11 -13 5 0 7 -7 3 -15 -3 -8 1
-18 8 -22 7 -5 21 -24 31 -43 16 -32 49 -68 64 -71 25 -6 69 -5 82 2 12 6 18
-2 28 -37 7 -24 17 -44 22 -44 4 0 6 -9 4 -20 -2 -11 -1 -20 3 -20 4 0 14 -20
21 -45 7 -25 16 -45 20 -45 3 0 14 -23 24 -51 10 -27 25 -53 33 -56 8 -3 14
-11 14 -19 0 -8 7 -14 15 -14 8 0 15 -5 15 -11 0 -6 14 -9 35 -6 32 4 34 3 33
-22 -1 -14 -4 -30 -6 -35 -4 -7 -12 -109 -13 -168 0 -10 -4 -20 -9 -23 -5 -3
-6 -15 0 -29 5 -13 4 -29 -1 -37 -19 -30 -10 -92 18 -121 15 -15 33 -28 40
-28 7 0 13 -3 13 -8 0 -4 18 -18 40 -32 22 -14 40 -28 40 -33 0 -4 4 -5 10 -2
5 3 10 2 10 -4 0 -6 11 -13 25 -17 14 -3 25 -9 25 -13 0 -4 12 -14 28 -22 53
-28 55 -34 23 -79 -18 -25 -28 -50 -26 -63 6 -27 26 -67 35 -67 4 0 17 -9 30
-20 13 -11 29 -20 36 -20 7 0 16 -4 19 -10 7 -12 -14 -87 -33 -117 -8 -13 -11
-23 -8 -23 4 0 -1 -15 -10 -32 -15 -29 -18 -58 -15 -122 1 -8 9 -22 18 -31 9
-10 56 -65 105 -123 69 -82 85 -108 77 -119 -6 -7 -8 -13 -5 -13 4 0 -2 -10
-13 -22 -19 -19 -22 -20 -38 -6 -15 12 -42 17 -110 21 -21 1 -79 -35 -93 -57
-43 -68 -4 -162 80 -196 47 -19 168 -21 175 -2 3 7 10 10 15 7 6 -4 22 1 35 9
14 9 25 14 25 11 0 -3 11 6 25 21 21 22 27 25 40 14 8 -7 15 -9 15 -5 0 4 7 1
17 -6 9 -8 17 -14 17 -13 1 1 19 10 42 22 52 26 70 48 56 65 -12 14 -13 55 -2
72 23 36 -31 118 -73 112 -16 -2 -45 21 -109 85 -48 48 -84 88 -81 88 3 0 -13
18 -36 40 -43 42 -45 51 -21 105 5 11 23 55 40 97 18 43 36 80 41 83 4 3 38 6
74 6 36 1 67 5 70 9 3 5 13 6 22 3 11 -4 14 -2 9 5 -3 6 2 16 14 22 17 9 19
19 17 80 -4 78 0 90 28 86 11 -2 26 2 34 8 11 8 13 8 7 -1 -7 -13 12 -17 61
-14 11 1 24 -2 26 -7 6 -9 65 -8 74 2 3 3 15 0 27 -6 11 -7 42 -11 68 -10 26
1 50 -3 53 -8 4 -6 12 -7 18 -3 18 11 36 12 43 2 3 -5 16 -9 30 -9 28 0 28 2
9 -43 -24 -57 -16 -87 33 -134 24 -23 49 -40 56 -37 7 3 19 -2 26 -11 10 -12
10 -24 -5 -63 -10 -26 -23 -54 -30 -62 -32 -39 -45 -130 -22 -155 29 -33 37
-45 32 -45 -3 0 4 -11 17 -23 58 -59 208 -228 208 -234 0 -3 -6 -11 -14 -19
-15 -15 -56 -20 -56 -6 0 4 -32 8 -70 9 -42 2 -70 -1 -70 -7 0 -6 -8 -10 -18
-10 -32 0 -64 -45 -68 -93 -3 -38 1 -49 32 -85 49 -57 123 -77 217 -59 20 5
37 12 37 18 0 6 4 8 9 5 5 -3 14 1 21 9 7 8 19 15 27 15 7 0 16 6 19 14 4 11
13 12 37 5 43 -12 105 -8 118 8 6 7 17 13 25 13 22 0 27 39 8 67 -16 25 -16
27 3 42 40 33 -8 124 -65 124 -19 0 -47 21 -106 81 -157 159 -191 203 -181
235 3 11 8 29 10 41 2 12 9 28 16 36 6 8 9 14 5 14 -4 0 1 15 11 33 9 17 16
35 15 40 -1 4 1 6 5 5 5 -1 37 2 73 6 92 11 136 34 144 76 1 3 4 10 8 15 3 6
5 33 4 62 -2 29 0 57 4 63 5 8 29 9 76 5 64 -6 118 -11 219 -18 50 -4 63 5 71
52 4 20 9 40 12 45 4 8 7 31 15 134 1 12 4 22 7 22 3 0 7 24 9 53 6 86 8 101
15 118 4 10 7 23 5 30 -8 63 31 119 79 116 49 -4 68 30 78 143 10 116 11 151
5 154 -5 3 -6 147 -2 177 1 4 12 10 26 13 30 8 53 30 78 74 22 38 16 126 -15
237 -18 63 -18 66 5 97 18 24 22 45 24 109 2 107 8 127 53 171 21 21 36 38 34
38 -3 0 1 7 8 15 31 35 35 43 35 83 0 24 -3 45 -7 47 -9 6 1 75 11 75 5 0 9 4
9 10 0 9 25 42 58 76 6 7 12 17 12 23 0 6 5 11 10 11 6 0 10 22 10 48 0 43 -4
53 -35 80 -19 18 -41 32 -50 32 -9 0 -18 7 -22 16 -3 8 -12 13 -19 10 -8 -3
-14 1 -14 10 0 8 -7 26 -16 39 -9 13 -13 28 -10 33 7 11 -44 72 -64 76 -35 7
-71 27 -65 36 3 5 1 10 -6 10 -7 0 -10 3 -7 6 4 3 0 20 -7 39 -8 18 -11 35 -8
39 4 3 1 6 -5 6 -7 0 -12 6 -12 13 0 13 -55 66 -71 68 -14 2 -29 6 -31 9 -2 2
-33 4 -69 5 -40 2 -80 10 -100 21 -19 10 -40 19 -47 20 -8 1 -21 6 -30 10 -21
8 -98 8 -132 -1 -44 -11 -110 -13 -110 -3 0 5 -5 6 -10 3 -6 -3 -22 2 -38 13
-15 11 -45 25 -67 32 -48 16 -163 17 -191 2 -16 -8 -24 -8 -32 0 -7 7 -12 8
-12 2 0 -8 -33 -13 -112 -18 -16 0 -28 -5 -28 -9 0 -5 -6 -5 -12 -1 -7 5 -19
9 -28 10 -28 3 -44 9 -58 22 -8 7 -18 10 -23 7 -5 -4 -9 -1 -9 5 0 7 -6 10
-14 7 -8 -3 -17 -3 -20 1 -4 3 -19 8 -34 9 -15 2 -33 11 -39 20 -7 9 -13 13
-13 9 0 -4 -12 1 -27 12 -16 10 -33 17 -40 15 -6 -2 -14 1 -18 7 -5 8 -11 8
-21 -1 -9 -7 -14 -8 -14 -1 0 7 -11 7 -32 2 -40 -11 -88 -21 -105 -22 -7 -1
-13 -6 -13 -11 0 -6 -3 -8 -6 -4 -4 3 -20 -1 -36 -9 -33 -17 -98 -12 -98 8 0
6 -3 9 -6 6 -3 -4 -16 0 -30 7 -13 7 -37 11 -52 9 -15 -2 -39 -5 -54 -6 -16 0
-28 -4 -28 -8 0 -16 -113 4 -118 20 -2 6 -8 8 -13 4 -5 -3 -9 0 -9 5 0 6 -6
11 -14 11 -7 0 -19 7 -26 15 -19 23 -76 19 -100 -7z"/>
</g>
</svg>
